<?xml version="1.0" encoding="UTF-8"?>
<svg id="_レイヤー_1" xmlns="http://www.w3.org/2000/svg" width="47.75" height="47.5" viewBox="0 0 47.75 47.5">
  <defs>
    <style>
      .cls-1 {
        fill: none;
      }

      .cls-1, .cls-2 {
        stroke: #231815;
        stroke-miterlimit: 10;
        stroke-width: .5px;
      }

      .cls-3 {
        fill: #231815;
      }

      .cls-2 {
        fill: #fff;
      }
    </style>
  </defs>
  <path class="cls-2" d="M2.3.25h43.1c1.13,0,2.05.91,2.05,2.04v42.92c0,1.13-.92,2.04-2.05,2.04H2.3c-1.13,0-2.05-.91-2.05-2.04V2.29C.25,1.16,1.17.25,2.3.25Z"/>
  <line class="cls-1" x1=".25" y1="18.1" x2="47.45" y2="18.1"/>
  <g>
    <path class="cls-3" d="M9.13,21.9l-.49.37v-.55l.49-.37h.5v3.58h-.5s0-3.03,0-3.03Z"/>
    <path class="cls-3" d="M11.14,24.94s.01-.03.04-.09.07-.14.12-.23.1-.2.16-.32.12-.23.17-.34.11-.22.16-.31.09-.17.12-.22c-.05.03-.1.04-.16.05s-.13,0-.21,0c-.11,0-.2-.02-.28-.06s-.15-.08-.21-.13-.11-.11-.15-.18-.07-.13-.09-.19-.04-.12-.05-.18-.02-.1-.02-.13v-.24s0-.06,0-.08c0-.01,0-.04.02-.09s.03-.1.05-.17.06-.14.1-.21.1-.14.17-.21.16-.12.26-.17.23-.08.37-.09c.15-.01.28,0,.4.03s.21.08.29.13.15.13.2.21.1.16.13.24.05.16.06.23.01.14,0,.19c-.01.08-.02.15-.03.22s-.03.12-.04.18-.03.11-.05.17-.04.12-.07.18c0,.02-.03.06-.05.12s-.07.13-.11.22-.09.18-.14.29-.11.22-.16.32c-.13.26-.27.54-.42.85h-.59,0ZM11.24,22.35c0,.06,0,.13.01.21s.03.15.06.22.08.13.15.17.17.08.29.08c.06,0,.12,0,.17-.02s.1-.04.13-.08.07-.07.1-.1.05-.08.07-.12.03-.07.04-.11.01-.06.01-.08c0-.04,0-.09,0-.14s0-.1-.01-.15-.03-.1-.05-.15-.05-.09-.09-.13-.09-.06-.15-.08-.14-.03-.23-.02c-.1,0-.18.03-.25.08s-.12.1-.15.15-.06.11-.08.16-.02.09-.02.11h0Z"/>
    <path class="cls-3" d="M13.18,24.46l1.36-1.75c.05-.07.09-.14.11-.2.01-.06.02-.11.02-.16,0-.13-.04-.25-.12-.35-.08-.1-.2-.15-.36-.15-.14,0-.25.05-.34.14-.09.09-.15.22-.17.38h-.5c.01-.3.11-.54.29-.74.18-.19.41-.29.68-.29.3,0,.54.1.73.3.19.19.29.44.29.73,0,.24-.07.45-.21.63l-1.12,1.44h1.33v.51h-1.98v-.48h0Z"/>
    <path class="cls-3" d="M17.32,21.33s0,.02-.02.05-.04.08-.07.14-.06.13-.1.21l-.12.25c-.04.09-.09.17-.13.26s-.09.17-.13.25-.08.15-.11.22-.06.12-.09.16c.05-.03.1-.04.16-.05s.13,0,.21,0c.11,0,.21.02.3.06s.16.08.22.13.11.11.15.18.07.13.09.19.04.12.05.18.01.1.01.13v.24s0,.06,0,.08c0,.01,0,.04-.02.09s-.03.1-.05.17-.06.14-.1.21-.1.15-.17.22-.16.13-.26.18-.23.08-.37.09c-.15.01-.28,0-.4-.03s-.21-.08-.3-.14-.15-.13-.21-.21-.1-.16-.13-.24-.05-.16-.06-.24-.01-.14,0-.2c.01-.08.02-.15.03-.22s.03-.12.04-.18.03-.11.05-.17.04-.12.07-.18c0-.02.03-.05.05-.12s.07-.14.11-.23.09-.19.15-.3.11-.22.16-.33c.13-.26.27-.55.43-.87h.58,0ZM17.21,23.94c0-.06,0-.13,0-.21s-.02-.15-.05-.22-.08-.13-.16-.18-.17-.08-.31-.09c-.06,0-.12,0-.17.02s-.1.04-.13.07-.07.07-.1.11-.05.08-.07.12-.03.08-.04.11-.01.06-.01.08c0,.04,0,.09,0,.14s0,.1.02.15.03.1.05.14.05.09.09.12.09.06.15.09.14.03.23.03c.07,0,.14,0,.19-.03s.1-.05.14-.08.07-.07.09-.11.04-.08.06-.12.02-.07.03-.1,0-.05,0-.07h0Z"/>
    <path class="cls-3" d="M27.2,21.18v3.28h-1.17v.41h-.32v-3.69h1.49ZM26.88,21.49h-.86v1.15h.86v-1.15ZM26.02,24.15h.86v-1.21h-.86v1.21ZM29.85,21.06l.18.02s0,.07-.01.11c-.05,1.15-.12,1.57-.25,1.72-.11.13-.23.14-.52.14-.11,0-.23,0-.36-.01-.01-.1-.05-.23-.1-.32.23.03.45.03.53.03.09,0,.13-.01.17-.05.09-.1.14-.44.19-1.32h-1.02c-.1.74-.32,1.51-1.16,1.91-.04-.08-.14-.19-.21-.25.73-.34.95-.98,1.04-1.66h-.9v-.31h2.42s0,0,0,0ZM27.61,25.47v-2.08h2.26v2.06h-.33v-.24h-1.6v.26h-.32ZM29.53,23.7h-1.6v1.2h1.6v-1.2Z"/>
    <path class="cls-3" d="M31.65,21.41c-.31.07-.64.14-.95.19-.01-.08-.06-.19-.11-.26.71-.13,1.51-.32,1.94-.53l.31.26s-.03.01-.1.01c-.21.09-.48.18-.77.25v.98h.87v.32h-.87v.3c.21.19.73.72.86.86l-.21.28c-.12-.17-.42-.51-.65-.77v2.17h-.33v-2.33c-.25.61-.59,1.22-.93,1.57-.04-.1-.13-.23-.19-.31.38-.4.8-1.12,1.03-1.77h-.96v-.32h1.06v-.9h0ZM33.05,21.36h1.96v3.93h-.35v-.35h-1.28v.39h-.33v-3.97h0ZM33.38,24.61h1.28v-2.93h-1.28v2.93Z"/>
  </g>
  <g>
    <path class="cls-3" d="M8.91,11.99l-.49.37v-.55l.49-.37h.5v3.58h-.5s0-3.03,0-3.03Z"/>
    <path class="cls-3" d="M10.91,15.02s.01-.03.04-.09.07-.14.12-.23.1-.2.16-.32.12-.23.17-.34.11-.22.16-.31.09-.17.12-.22c-.05.03-.1.04-.16.05s-.13,0-.21,0c-.11,0-.2-.02-.28-.06s-.15-.08-.21-.13-.11-.11-.15-.18-.07-.13-.09-.19-.04-.12-.05-.18-.02-.1-.02-.13v-.24s0-.06,0-.08c0-.01,0-.04.02-.09s.03-.1.05-.17.06-.14.1-.21.1-.14.17-.21.16-.12.26-.17.23-.08.37-.09c.15-.01.28,0,.4.03s.21.08.29.13.15.13.2.21.1.16.13.24.05.16.06.23.01.14,0,.19c-.01.08-.02.15-.03.22s-.03.12-.04.18-.03.11-.05.17-.04.12-.07.18c0,.02-.03.06-.05.12s-.07.13-.11.22c-.04.09-.09.18-.14.29s-.11.22-.16.32c-.13.26-.27.54-.42.85h-.59,0ZM11.02,12.43c0,.06,0,.13.01.21s.03.15.06.22.08.13.15.17.17.08.29.08c.06,0,.12,0,.17-.02s.1-.04.13-.08.07-.07.1-.1.05-.08.07-.12.03-.07.04-.11.01-.06.01-.08c0-.04,0-.09,0-.14s0-.1-.01-.15-.03-.1-.05-.15-.05-.09-.09-.13-.09-.06-.15-.08-.14-.03-.23-.02c-.1,0-.18.03-.25.08s-.12.1-.15.15-.06.11-.08.16-.02.09-.02.11h0Z"/>
    <path class="cls-3" d="M12.91,13.98c0-.35.15-.61.42-.81-.11-.09-.19-.2-.25-.32-.07-.11-.11-.25-.11-.4,0-.3.1-.54.29-.74.18-.19.42-.29.7-.3.29,0,.53.1.71.3.19.19.28.44.28.74,0,.15-.03.29-.1.4-.07.12-.15.23-.26.32.28.19.42.46.42.8,0,.32-.11.58-.31.77-.21.2-.46.3-.76.3-.3,0-.54-.1-.74-.3-.21-.19-.32-.45-.32-.77h0ZM13.41,13.98c0,.16.06.3.17.4.11.11.24.17.39.17s.29-.05.4-.17c.11-.1.17-.24.17-.4,0-.17-.06-.3-.17-.41-.11-.1-.24-.16-.4-.16-.15,0-.28.06-.39.16-.11.1-.17.24-.17.41ZM13.47,12.44c0,.17.05.29.16.38.1.09.21.14.34.14s.25-.05.35-.14c.1-.09.15-.21.15-.38,0-.17-.05-.3-.15-.39-.1-.08-.22-.13-.35-.13s-.24.04-.34.13c-.1.09-.15.22-.16.39Z"/>
    <path class="cls-3" d="M15.75,15.02s.01-.03.04-.09.07-.14.12-.23.1-.2.16-.32.12-.23.17-.34.11-.22.16-.31.09-.17.12-.22c-.05.03-.1.04-.16.05s-.13,0-.21,0c-.11,0-.2-.02-.28-.06s-.15-.08-.21-.13-.11-.11-.15-.18-.07-.13-.09-.19-.04-.12-.05-.18-.02-.1-.02-.13v-.24s0-.06,0-.08c0-.01,0-.04.02-.09s.03-.1.05-.17.06-.14.1-.21.1-.14.17-.21.16-.12.26-.17.23-.08.37-.09c.15-.01.28,0,.4.03s.21.08.29.13.15.13.2.21.1.16.13.24.05.16.06.23.01.14,0,.19c-.01.08-.02.15-.03.22s-.03.12-.04.18-.03.11-.05.17-.04.12-.07.18c0,.02-.03.06-.05.12s-.07.13-.11.22c-.04.09-.09.18-.14.29s-.11.22-.16.32c-.13.26-.27.54-.42.85h-.59,0ZM15.86,12.43c0,.06,0,.13.01.21s.03.15.06.22.08.13.15.17.17.08.29.08c.06,0,.12,0,.17-.02s.1-.04.13-.08.07-.07.1-.1.05-.08.07-.12.03-.07.04-.11.01-.06.01-.08c0-.04,0-.09,0-.14s0-.1-.01-.15-.03-.1-.05-.15-.05-.09-.09-.13-.09-.06-.15-.08-.14-.03-.23-.02c-.1,0-.18.03-.25.08s-.12.1-.15.15-.06.11-.08.16-.02.09-.02.11h0Z"/>
    <path class="cls-3" d="M29.92,13.4v.34h-2.13v1.82h-.35v-1.82h-2.1v-.34h2.1v-1.83h-1.83v-.34h4.02v.34h-1.84v1.83s2.13,0,2.13,0ZM26.46,13.12c-.07-.32-.27-.81-.48-1.2l.31-.1c.22.37.44.86.5,1.18,0,0-.32.11-.32.11ZM29.38,11.95s-.05.05-.11.05c-.15.34-.4.85-.6,1.16l-.29-.12c.2-.32.45-.86.58-1.24,0,0,.42.15.42.15Z"/>
    <path class="cls-3" d="M33.34,12.12c.06.69.17,1.34.32,1.86.28-.42.51-.9.68-1.44l.41.13s-.05.05-.12.05c-.21.62-.49,1.17-.85,1.64.21.53.46.87.75.87.16,0,.23-.28.26-.96.08.08.19.15.29.18-.07.86-.2,1.12-.58,1.12-.41,0-.73-.35-.97-.9-.33.36-.71.67-1.13.91-.05-.07-.15-.2-.22-.26.47-.25.87-.58,1.21-1-.2-.6-.34-1.38-.41-2.2h-1.85v.68h1.23s.18,0,.18,0v.12c-.03,1.2-.05,1.63-.16,1.77-.13.14-.26.14-.53.14-.12,0-.25,0-.38-.01-.01-.1-.05-.23-.1-.32.25.03.48.03.57.03.07,0,.13-.01.16-.05.07-.09.1-.43.12-1.37h-1.07c0,.5,0,1.69-.57,2.46-.05-.06-.19-.18-.27-.22.45-.62.5-1.49.5-2.15v-1.41h2.16c-.02-.3-.03-.6-.04-.9l.45.03s-.04.06-.11.08c0,.27,0,.54.02.8h1.65v.33h-1.63ZM33.86,10.93c.32.17.72.41.92.59l-.21.23c-.2-.18-.59-.44-.91-.61l.21-.21Z"/>
  </g>
  <g>
    <path class="cls-3" d="M8.11,5.44l1.36-1.75c.05-.07.09-.14.11-.2.01-.06.02-.11.02-.16,0-.13-.04-.25-.12-.35-.08-.1-.2-.15-.36-.15-.14,0-.25.05-.34.14-.09.09-.15.22-.17.38h-.5c.01-.3.11-.54.29-.74.18-.19.41-.29.68-.29.3,0,.54.1.73.3.19.19.29.44.29.73,0,.24-.07.45-.21.63l-1.12,1.44h1.33v.51h-1.98v-.48h0Z"/>
    <path class="cls-3" d="M10.56,3.34c0-.33.11-.58.31-.76.19-.18.42-.26.68-.26s.5.09.69.27c.19.18.29.43.3.76v1.58c0,.33-.11.58-.3.76-.19.18-.42.27-.69.27-.26,0-.49-.09-.68-.27-.2-.18-.3-.43-.31-.76,0,0,0-1.58,0-1.58ZM12.04,3.37c-.01-.36-.17-.54-.49-.55-.32,0-.48.19-.49.55v1.52c0,.36.17.54.49.55.32,0,.48-.19.49-.55,0,0,0-1.52,0-1.52Z"/>
    <path class="cls-3" d="M13.75,2.89l-.49.37v-.55l.49-.37h.5v3.58h-.5v-3.03Z"/>
    <path class="cls-3" d="M15.75,5.92s.01-.03.04-.09.07-.14.12-.23.1-.2.16-.32.12-.23.17-.34.11-.22.16-.31.09-.17.12-.22c-.05.03-.1.04-.16.05s-.13,0-.21,0c-.11,0-.2-.02-.28-.06s-.15-.08-.21-.13-.11-.11-.15-.18-.07-.13-.09-.19-.04-.12-.05-.18-.02-.1-.02-.13v-.24s0-.06,0-.08c0-.01,0-.04.02-.09s.03-.1.05-.17.06-.14.1-.21.1-.14.17-.21.16-.12.26-.17.23-.08.37-.09c.15-.01.28,0,.4.03s.21.08.29.13.15.13.2.21.1.16.13.24.05.16.06.23.01.14,0,.19c-.01.08-.02.15-.03.22s-.03.12-.04.18-.03.11-.05.17-.04.12-.07.18c0,.02-.03.06-.05.12s-.07.13-.11.22-.09.18-.14.29-.11.22-.16.32c-.13.26-.27.54-.42.85h-.59,0ZM15.86,3.33c0,.06,0,.13.01.21,0,.08.03.15.06.22s.08.13.15.17.17.08.29.08c.06,0,.12,0,.17-.02s.1-.04.13-.08.07-.07.1-.1.05-.08.07-.12.03-.07.04-.11.01-.06.01-.08c0-.04,0-.09,0-.14s0-.1-.01-.15-.03-.1-.05-.15-.05-.09-.09-.13-.09-.06-.15-.08-.14-.03-.23-.02c-.1,0-.18.03-.25.08s-.12.1-.15.15-.06.11-.08.16-.02.09-.02.11h0Z"/>
    <path class="cls-3" d="M27.92,1.81s-.05.06-.1.07c.5.65,1.42,1.39,2.19,1.77-.08.08-.17.19-.23.29-.79-.44-1.7-1.18-2.18-1.81-.42.61-1.26,1.36-2.13,1.85-.05-.08-.14-.2-.21-.27.88-.48,1.77-1.28,2.16-1.94l.49.04h0ZM29.36,4.27v1.43c0,.39-.21.4-1,.4-.02-.1-.08-.23-.13-.32.16,0,.3,0,.42,0,.32,0,.35,0,.35-.09v-1.11h-1.54v1.87h-.35v-1.87h-1.39v-.31h3.62ZM26.55,3.31h2.17v.31h-2.17v-.31Z"/>
    <path class="cls-3" d="M31.42,2.4c-.31.07-.64.14-.95.19-.01-.08-.06-.19-.11-.26.71-.13,1.51-.32,1.94-.53l.31.26s-.03.01-.1.01c-.21.09-.48.18-.77.25v.98h.87v.32h-.87v.3c.21.19.73.72.86.86l-.21.28c-.12-.17-.42-.51-.65-.77v2.16h-.33v-2.33c-.25.61-.59,1.22-.93,1.57-.04-.1-.13-.23-.19-.31.38-.4.8-1.12,1.03-1.77h-.96v-.32h1.06v-.9h0ZM32.82,2.34h1.96v3.93h-.35v-.35h-1.28v.39h-.33v-3.97h0ZM33.16,5.6h1.28v-2.93h-1.28v2.93Z"/>
  </g>
  <g>
    <path class="cls-3" d="M8.96,30.95l-.49.37v-.55l.49-.37h.5v3.58h-.5v-3.03Z"/>
    <path class="cls-3" d="M10.97,33.98s.01-.03.04-.09.07-.14.12-.23.1-.2.16-.32.12-.23.17-.34.11-.22.16-.31.09-.17.12-.22c-.05.03-.1.04-.16.05s-.13,0-.21,0c-.11,0-.2-.02-.28-.06s-.15-.08-.21-.13-.11-.11-.15-.18-.07-.13-.09-.19-.04-.12-.05-.18-.02-.1-.02-.13v-.24s0-.06,0-.08c0-.01,0-.04.02-.09s.03-.1.05-.17.06-.14.1-.21.1-.14.17-.21.16-.12.26-.17.23-.08.37-.09c.15-.01.28,0,.4.03s.21.08.29.13.15.13.2.21.1.16.13.24.05.16.06.23.01.14,0,.19c-.01.08-.02.15-.03.22s-.03.12-.04.18-.03.11-.05.17-.04.12-.07.18c0,.02-.03.06-.05.12s-.07.13-.11.22-.09.18-.14.29-.11.22-.16.32c-.13.26-.27.54-.42.85h-.59,0ZM11.08,31.39c0,.06,0,.13.01.21s.03.15.06.22.08.13.15.17.17.08.29.08c.06,0,.12,0,.17-.02s.1-.04.13-.08.07-.07.1-.1.05-.08.07-.12.03-.07.04-.11.01-.06.01-.08c0-.04,0-.09,0-.14s0-.1-.01-.15-.03-.1-.05-.15-.05-.09-.09-.13-.09-.06-.15-.08-.14-.03-.23-.02c-.1,0-.18.03-.25.08s-.12.1-.15.15-.06.11-.08.16-.02.09-.02.11h0Z"/>
    <path class="cls-3" d="M13.81,30.95l-.49.37v-.55l.49-.37h.5v3.58h-.5v-3.03Z"/>
    <path class="cls-3" d="M15.43,33.5l1.36-1.75c.05-.07.09-.14.11-.2.01-.06.02-.11.02-.16,0-.13-.04-.25-.12-.35-.08-.1-.2-.15-.36-.15-.14,0-.25.04-.34.14-.09.09-.15.22-.17.38h-.5c.01-.3.11-.54.29-.74.18-.19.41-.29.68-.29.3,0,.54.1.73.3.19.19.29.44.29.73,0,.24-.07.45-.21.63l-1.12,1.44h1.33v.51h-1.98v-.48h0Z"/>
    <path class="cls-3" d="M29.94,31.67h-1.97c.33,1.2.98,2.12,2.05,2.52-.09.08-.2.22-.25.32-1.06-.43-1.69-1.32-2.07-2.53-.23.99-.78,1.98-2.08,2.54-.05-.09-.16-.21-.24-.29,1.33-.54,1.83-1.54,2.02-2.56h-1.95v-.35h2c.07-.52.06-1.03.07-1.47l.48.03s-.05.07-.11.09c0,.4-.01.87-.07,1.36h2.13v.35h0Z"/>
    <path class="cls-3" d="M32.97,33.95h2.06v.33h-4.58v-.33h.71v-2.43l.45.03s-.04.06-.1.07v2.33h1.1v-3.4h-1.97v-.33h4.21v.33h-1.88v1.41h1.65v.33h-1.65v1.65h0Z"/>
  </g>
  <g>
    <path class="cls-3" d="M9.06,40.93l-.49.37v-.55l.49-.37h.5v3.58h-.5v-3.03Z"/>
    <path class="cls-3" d="M10.64,42.92c0-.35.15-.61.42-.81-.11-.09-.19-.2-.25-.32-.07-.11-.11-.25-.11-.4,0-.3.1-.54.29-.74.18-.19.42-.29.7-.3.29,0,.53.1.71.3.19.19.28.44.28.74,0,.15-.03.29-.1.4-.07.12-.15.23-.26.32.28.19.42.46.42.8,0,.32-.11.58-.31.77-.21.2-.46.3-.76.3-.3,0-.54-.1-.74-.3-.21-.19-.32-.45-.32-.77h0ZM11.14,42.92c0,.16.06.3.17.4.11.11.24.17.39.17s.29-.05.4-.17c.11-.1.17-.24.17-.4,0-.17-.06-.3-.17-.41-.11-.1-.24-.16-.4-.16-.15,0-.28.06-.39.16-.11.1-.17.24-.17.41ZM11.21,41.39c0,.17.05.29.16.38.1.09.21.14.34.14s.25-.05.35-.14c.1-.09.15-.21.15-.38,0-.17-.05-.3-.15-.39-.1-.08-.22-.13-.35-.13s-.24.04-.34.13c-.1.09-.15.22-.16.39Z"/>
    <path class="cls-3" d="M14.83,40.36s0,.02-.02.05-.04.08-.07.14-.06.13-.1.21l-.12.25c-.04.09-.09.17-.13.26s-.09.17-.13.25-.08.15-.11.22-.06.12-.09.16c.05-.03.1-.04.16-.05s.13,0,.21,0c.11,0,.21.02.3.06s.16.08.22.13.11.11.15.18.07.13.09.19.04.12.05.18.01.1.01.13v.24s0,.06,0,.08c0,.01,0,.04-.02.09s-.03.1-.05.17-.06.14-.1.21-.1.15-.17.22-.16.13-.26.18-.23.08-.37.09c-.15.01-.28,0-.4-.03s-.21-.08-.3-.14-.15-.13-.21-.21-.1-.16-.13-.24-.05-.16-.06-.24-.01-.14,0-.2c.01-.08.02-.15.03-.22s.03-.12.04-.18.03-.11.05-.17.04-.12.07-.18c0-.02.03-.05.05-.12s.07-.14.11-.23.09-.19.15-.3.11-.22.16-.33c.13-.26.27-.55.43-.87h.58,0ZM14.73,42.97c0-.06,0-.13,0-.21s-.02-.15-.05-.22-.08-.13-.16-.18-.17-.08-.31-.09c-.06,0-.12,0-.17.02s-.1.04-.13.07-.07.07-.1.11-.05.08-.07.12-.03.08-.04.11-.01.06-.01.08c0,.04,0,.09,0,.14s0,.1.02.15.03.1.05.14.05.09.09.12.09.06.15.09.14.03.23.03c.07,0,.14,0,.19-.03s.1-.05.14-.08.07-.07.09-.11.04-.08.06-.12.02-.07.03-.1,0-.05,0-.07h0Z"/>
    <path class="cls-3" d="M15.49,42.92c0-.35.15-.61.42-.81-.11-.09-.19-.2-.25-.32-.07-.11-.11-.25-.11-.4,0-.3.1-.54.29-.74.18-.19.42-.29.7-.3.29,0,.53.1.71.3.19.19.28.44.28.74,0,.15-.03.29-.1.4-.07.12-.15.23-.26.32.28.19.42.46.42.8,0,.32-.11.58-.31.77-.21.2-.46.3-.76.3-.3,0-.54-.1-.74-.3-.21-.19-.32-.45-.32-.77h0ZM15.98,42.92c0,.16.06.3.17.4.11.11.24.17.39.17s.29-.05.4-.17c.11-.1.17-.24.17-.4,0-.17-.06-.3-.17-.41-.11-.1-.24-.16-.4-.16-.15,0-.28.06-.39.16-.11.1-.17.24-.17.41ZM16.05,41.39c0,.17.05.29.16.38.1.09.21.14.34.14s.25-.05.35-.14c.1-.09.15-.21.15-.38,0-.17-.05-.3-.15-.39-.1-.08-.22-.13-.35-.13s-.24.04-.34.13c-.1.09-.15.22-.16.39Z"/>
    <path class="cls-3" d="M27.31,43.18h-1.34v.48h-.32v-3.51h1.65v3.02ZM26.99,40.46h-1.02v1.02h1.02v-1.02ZM25.97,42.86h1.02v-1.07h-1.02v1.07ZM29.96,40.05v3.98c0,.23-.05.34-.21.39-.16.05-.43.06-.88.06-.01-.1-.08-.24-.13-.34.17,0,.34.01.48.01.37,0,.41,0,.41-.13v-1.17h-1.57c-.12.61-.38,1.22-.96,1.67-.05-.06-.18-.19-.25-.23.87-.67.96-1.64.96-2.44v-1.81h2.16ZM28.13,41.86c0,.22-.01.45-.04.69h1.53v-.94h-1.49v.26ZM29.63,40.37h-1.49v.93h1.49v-.93Z"/>
    <path class="cls-3" d="M30.67,41.25c.34.11.78.31,1,.48l-.19.29c-.21-.17-.65-.38-1-.51l.19-.26h0ZM30.65,44.2c.28-.39.68-1.07.97-1.65.2.18.23.2.25.22-.27.54-.63,1.17-.88,1.56.01.03.03.05.03.06s-.01.04-.03.06l-.34-.26ZM30.94,39.87c.35.13.77.36.98.54l-.2.29c-.21-.19-.62-.43-.97-.57l.19-.26h0ZM33.49,39.95s-.06.05-.12.05c-.18.48-.45,1.13-.71,1.61.54-.01,1.17-.04,1.8-.06-.2-.28-.42-.56-.63-.79l.29-.15c.42.45.88,1.05,1.09,1.46l-.31.18c-.06-.12-.14-.25-.23-.4-.99.05-2.04.1-2.68.13-.01.04-.04.06-.08.06l-.13-.4h.51c.27-.52.57-1.27.74-1.82l.45.13h0ZM32.25,44.51v-2.04h2.48v2.02h-.34v-.21h-1.81v.23h-.33ZM34.39,42.78h-1.81v1.18h1.81v-1.18Z"/>
  </g>
  <line class="cls-1" x1=".25" y1="9.05" x2="47.45" y2="9.05"/>
  <line class="cls-1" x1=".55" y1="27.6" x2="47.75" y2="27.6"/>
  <line class="cls-1" x1=".25" y1="37.09" x2="47.45" y2="37.09"/>
</svg>