<?xml version="1.0" encoding="UTF-8"?>
<svg id="_レイヤー_1" data-name="レイヤー_1" xmlns="http://www.w3.org/2000/svg" width="226.49" height="225.57" viewBox="0 0 226.49 225.57">
  <defs>
    <style>
      .cls-1 {
        fill: none;
      }

      .cls-1, .cls-2 {
        stroke: #231815;
        stroke-miterlimit: 10;
      }

      .cls-3 {
        fill: #231815;
      }

      .cls-2 {
        fill: #fff;
      }
    </style>
  </defs>
  <rect class="cls-2" x=".5" y=".5" width="224.57" height="224.57" rx="9.75" ry="9.75"/>
  <line class="cls-1" x1=".5" y1="85.8" x2="225.07" y2="85.8"/>
  <g>
    <path class="cls-3" d="M42.75,103.96l-2.35,1.78v-2.61l2.35-1.76h2.37v17.09h-2.37v-14.5Z"/>
    <path class="cls-3" d="M52.29,118.46s.06-.14.2-.43.32-.65.55-1.11.48-.96.76-1.51.56-1.1.83-1.64.53-1.04.77-1.49.43-.81.58-1.07c-.23.13-.48.21-.77.24s-.62.03-.99.02c-.52-.02-.97-.11-1.35-.28s-.72-.39-1-.64-.52-.54-.7-.86-.34-.62-.45-.93-.2-.58-.25-.84-.08-.47-.08-.62c0-.05,0-.13,0-.26s0-.26,0-.42,0-.31,0-.46.01-.29.03-.4c0-.05.03-.19.08-.42s.12-.49.24-.8.28-.65.49-1,.49-.69.83-1,.76-.58,1.25-.81,1.08-.37,1.76-.43c.71-.06,1.34-.02,1.88.13s1.01.36,1.4.64.71.61.97.98.46.76.6,1.14.24.76.29,1.12.05.67.02.93c-.05.38-.1.72-.15,1.03s-.12.59-.19.86-.16.54-.25.81-.2.55-.33.87c-.03.09-.12.27-.25.56s-.31.64-.52,1.06-.43.88-.68,1.39-.5,1.03-.76,1.54c-.6,1.22-1.27,2.58-2.02,4.08h-2.8ZM52.81,106.08c0,.3.02.64.05,1.01s.12.71.28,1.04.39.6.72.83.79.36,1.38.39c.3.02.57-.02.81-.11s.46-.21.64-.36.35-.32.49-.5.25-.37.34-.56.15-.35.19-.51.06-.28.06-.38c0-.2-.01-.41-.02-.66s-.03-.49-.07-.74-.12-.49-.22-.72-.25-.43-.43-.6-.43-.31-.72-.4-.66-.13-1.1-.11c-.48.02-.88.14-1.19.36s-.55.46-.73.73-.3.52-.38.77-.11.42-.11.52Z"/>
    <path class="cls-3" d="M62.01,116.16l6.48-8.36c.25-.34.42-.65.51-.94.06-.27.09-.53.09-.77,0-.64-.19-1.2-.58-1.68-.4-.48-.97-.72-1.71-.74-.65,0-1.2.22-1.63.65-.45.43-.71,1.04-.8,1.82h-2.37c.06-1.42.52-2.59,1.39-3.52.87-.9,1.94-1.37,3.22-1.38,1.42.02,2.58.48,3.47,1.41.9.91,1.36,2.08,1.38,3.48,0,1.13-.33,2.13-1,3l-5.33,6.9h6.33v2.44h-9.44v-2.3Z"/>
    <path class="cls-3" d="M81.7,101.2s-.03.08-.11.25-.19.4-.33.69-.3.62-.49,1l-.59,1.18c-.21.41-.42.83-.63,1.25s-.42.82-.62,1.21-.38.73-.54,1.04-.3.56-.41.75c.23-.13.48-.21.77-.24s.62-.03.99-.02c.54.02,1.01.11,1.41.28s.75.39,1.04.64.53.54.72.86.34.62.45.93.19.58.23.84.06.47.06.62v.67c0,.15,0,.31,0,.46s0,.29-.02.4c0,.05-.03.2-.08.43s-.12.5-.23.82-.28.66-.49,1.02-.49.71-.83,1.03-.76.6-1.25.84-1.08.38-1.76.43c-.71.06-1.34.02-1.89-.14s-1.02-.38-1.42-.67-.73-.62-1-1-.47-.77-.63-1.17-.25-.78-.3-1.15-.06-.68-.03-.94c.05-.38.1-.72.15-1.03s.12-.59.19-.86.16-.54.25-.81.2-.55.33-.87c.03-.08.12-.26.26-.56s.31-.65.52-1.08.44-.9.7-1.42.52-1.04.77-1.57c.61-1.23,1.29-2.61,2.05-4.14h2.77ZM81.21,113.7c0-.3-.01-.62-.04-.98s-.11-.7-.26-1.03-.4-.6-.74-.84-.83-.38-1.46-.42c-.3-.02-.57,0-.81.09s-.46.2-.64.35-.35.32-.49.51-.25.38-.34.57-.15.36-.19.52-.06.28-.06.37c0,.2,0,.41.01.65s.03.48.08.71.12.47.22.69.25.42.43.59.43.31.72.42.66.16,1.1.16c.35,0,.66-.04.92-.13s.48-.22.67-.38.33-.32.45-.51.21-.37.28-.55.11-.34.13-.49.04-.25.04-.32Z"/>
    <path class="cls-3" d="M128.7,100.51v15.67h-5.59v1.97h-1.51v-17.64h7.1ZM127.19,102h-4.08v5.5h4.08v-5.5ZM123.11,114.69h4.08v-5.76h-4.08v5.76ZM141.35,99.93l.86.1c0,.14-.02.34-.05.53-.26,5.5-.55,7.49-1.18,8.21-.53.6-1.1.67-2.47.67-.5,0-1.1,0-1.7-.05-.05-.46-.22-1.08-.48-1.51,1.1.12,2.16.12,2.52.12.41,0,.62-.05.82-.24.41-.46.67-2.09.89-6.31h-4.85c-.48,3.55-1.51,7.2-5.52,9.14-.19-.38-.65-.91-1.01-1.2,3.46-1.61,4.51-4.68,4.95-7.94h-4.27v-1.49h11.16l.34-.02ZM130.65,121.01v-9.94h10.73v9.84h-1.58v-1.15h-7.61v1.25h-1.54ZM139.79,112.53h-7.61v5.74h7.61v-5.74Z"/>
    <path class="cls-3" d="M149.87,101.61c-1.49.34-3.05.65-4.51.89-.07-.36-.29-.89-.5-1.25,3.36-.6,7.2-1.51,9.24-2.54l1.49,1.25c-.1.07-.14.07-.48.07-.98.43-2.26.84-3.67,1.2v4.7h4.13v1.51h-4.13v1.44c1.01.91,3.48,3.43,4.08,4.1l-1.01,1.32c-.58-.82-1.99-2.45-3.07-3.67v10.35h-1.56v-11.14c-1.2,2.9-2.83,5.81-4.42,7.51-.19-.46-.6-1.08-.91-1.46,1.82-1.9,3.79-5.33,4.9-8.45h-4.58v-1.51h5.02v-4.32ZM156.54,101.35h9.34v18.79h-1.66v-1.68h-6.1v1.87h-1.58v-18.99ZM158.13,116.9h6.1v-13.99h-6.1v13.99Z"/>
  </g>
  <g>
    <path class="cls-3" d="M41.69,56.59l-2.35,1.78v-2.61l2.35-1.76h2.37v17.09h-2.37v-14.5Z"/>
    <path class="cls-3" d="M51.22,71.09s.06-.14.2-.43.32-.65.55-1.11.48-.96.76-1.51.56-1.1.83-1.64.53-1.04.77-1.49.43-.81.58-1.07c-.23.13-.48.21-.77.24s-.62.03-.99.02c-.52-.02-.97-.11-1.35-.28s-.72-.39-1-.64-.52-.54-.7-.86-.34-.62-.45-.93-.2-.58-.25-.84-.08-.47-.08-.62c0-.05,0-.13,0-.26s0-.26,0-.42,0-.31,0-.46.01-.29.03-.4c0-.05.03-.19.08-.42s.12-.49.24-.8.28-.65.49-1,.49-.69.83-1,.76-.58,1.25-.81,1.08-.37,1.76-.43c.71-.06,1.34-.02,1.88.13s1.01.36,1.4.64.71.61.97.98.46.76.6,1.14.24.76.29,1.12.05.67.02.93c-.05.38-.1.72-.15,1.03s-.12.59-.19.86-.16.54-.25.81-.2.55-.33.87c-.03.09-.12.27-.25.56s-.31.64-.52,1.06-.43.88-.68,1.39-.5,1.03-.76,1.54c-.6,1.22-1.27,2.58-2.02,4.08h-2.8ZM51.75,58.71c0,.3.02.64.05,1.01s.12.71.28,1.04.39.6.72.83.79.36,1.38.39c.3.02.57-.02.81-.11s.46-.21.64-.36.35-.32.49-.5.25-.37.34-.56.15-.35.19-.51.06-.28.06-.38c0-.2-.01-.41-.02-.66s-.03-.49-.07-.74-.12-.49-.22-.72-.25-.43-.43-.6-.43-.31-.72-.4-.66-.13-1.1-.11c-.48.02-.88.14-1.19.36s-.55.46-.73.73-.3.52-.38.77-.11.42-.11.52Z"/>
    <path class="cls-3" d="M60.73,66.1c.02-1.65.69-2.93,2.02-3.85-.51-.45-.91-.96-1.2-1.54-.34-.54-.5-1.18-.5-1.92.01-1.42.48-2.6,1.4-3.53.86-.92,1.98-1.39,3.34-1.41,1.39.02,2.52.48,3.4,1.41.89.93,1.34,2.11,1.35,3.53,0,.74-.15,1.38-.46,1.92-.32.58-.73,1.09-1.24,1.54,1.33.91,2,2.2,2.02,3.84-.01,1.54-.5,2.77-1.47,3.69-.98.95-2.18,1.43-3.6,1.44-1.41-.02-2.59-.5-3.54-1.44-1-.92-1.5-2.15-1.51-3.69ZM63.09,66.08c.01.78.29,1.43.82,1.93.51.52,1.13.79,1.87.79s1.39-.26,1.9-.79c.52-.5.79-1.14.8-1.93-.02-.8-.28-1.45-.8-1.95-.51-.49-1.14-.75-1.9-.76-.73.02-1.35.27-1.87.76-.53.5-.81,1.15-.82,1.95ZM63.41,58.75c.01.79.26,1.4.74,1.81.47.43,1.02.65,1.63.65s1.19-.22,1.67-.65c.46-.42.7-1.02.72-1.81-.02-.82-.25-1.43-.72-1.85-.47-.4-1.03-.6-1.67-.6s-1.16.2-1.63.6c-.48.42-.73,1.03-.74,1.85Z"/>
    <path class="cls-3" d="M74.26,71.09s.06-.14.2-.43.32-.65.55-1.11.48-.96.76-1.51.56-1.1.83-1.64.53-1.04.77-1.49.43-.81.58-1.07c-.23.13-.48.21-.77.24s-.62.03-.99.02c-.52-.02-.97-.11-1.35-.28s-.72-.39-1-.64-.52-.54-.7-.86-.34-.62-.45-.93-.2-.58-.25-.84-.08-.47-.08-.62c0-.05,0-.13,0-.26s0-.26,0-.42,0-.31,0-.46.01-.29.03-.4c0-.05.03-.19.08-.42s.12-.49.24-.8.28-.65.49-1,.49-.69.83-1,.76-.58,1.25-.81,1.08-.37,1.76-.43c.71-.06,1.34-.02,1.88.13s1.01.36,1.4.64.71.61.97.98.46.76.6,1.14.24.76.29,1.12.05.67.02.93c-.05.38-.1.72-.15,1.03s-.12.59-.19.86-.16.54-.25.81-.2.55-.33.87c-.03.09-.12.27-.25.56s-.31.64-.52,1.06-.43.88-.68,1.39-.5,1.03-.76,1.54c-.6,1.22-1.27,2.58-2.02,4.08h-2.8ZM74.79,58.71c0,.3.02.64.05,1.01s.12.71.28,1.04.39.6.72.83.79.36,1.38.39c.3.02.57-.02.81-.11s.46-.21.64-.36.35-.32.49-.5.25-.37.34-.56.15-.35.19-.51.06-.28.06-.38c0-.2-.01-.41-.02-.66s-.03-.49-.07-.74-.12-.49-.22-.72-.25-.43-.43-.6-.43-.31-.72-.4-.66-.13-1.1-.11c-.48.02-.88.14-1.19.36s-.55.46-.73.73-.3.52-.38.77-.11.42-.11.52Z"/>
    <path class="cls-3" d="M141.66,63.34v1.61h-10.13v8.69h-1.66v-8.69h-9.99v-1.61h9.99v-8.74h-8.71v-1.61h19.13v1.61h-8.76v8.74h10.13ZM125.22,62c-.31-1.51-1.27-3.89-2.3-5.71l1.46-.46c1.06,1.78,2.09,4.13,2.38,5.64l-1.54.53ZM139.09,56.38c-.07.17-.24.22-.53.24-.7,1.63-1.9,4.06-2.86,5.54l-1.39-.55c.94-1.54,2.14-4.1,2.76-5.93l2.02.7Z"/>
    <path class="cls-3" d="M157.93,57.22c.29,3.29.82,6.38,1.54,8.9,1.34-2.02,2.42-4.32,3.22-6.86l1.97.6c-.05.17-.24.24-.55.24-.98,2.95-2.33,5.59-4.03,7.85.98,2.54,2.18,4.15,3.58,4.15.74,0,1.08-1.32,1.25-4.61.36.36.91.72,1.37.86-.34,4.13-.96,5.35-2.74,5.35-1.94,0-3.46-1.68-4.61-4.32-1.56,1.73-3.36,3.19-5.38,4.34-.22-.34-.72-.94-1.06-1.25,2.23-1.18,4.15-2.78,5.78-4.78-.96-2.88-1.61-6.58-1.94-10.49h-8.81v3.24h5.52l.34-.02.84.05v.55c-.12,5.74-.26,7.8-.77,8.45-.6.65-1.22.67-2.52.67-.55,0-1.18,0-1.82-.05-.05-.48-.22-1.1-.48-1.51,1.18.12,2.28.12,2.69.12.34,0,.6-.05.77-.24.34-.41.46-2.04.55-6.53h-5.11c0,2.38,0,8.09-2.69,11.74-.26-.31-.91-.84-1.27-1.06,2.14-2.95,2.38-7.1,2.38-10.25v-6.72h10.3c-.1-1.42-.14-2.86-.17-4.3l2.16.12c0,.19-.17.31-.5.36,0,1.27.02,2.57.1,3.82h7.85v1.56h-7.73ZM160.4,51.51c1.54.79,3.43,1.97,4.37,2.83l-1.01,1.08c-.94-.86-2.81-2.11-4.34-2.93l.98-.98Z"/>
  </g>
  <g>
    <path class="cls-3" d="M37.91,25.31l6.48-8.36c.25-.34.42-.65.51-.94.06-.27.09-.53.09-.77,0-.64-.19-1.2-.58-1.68-.4-.48-.97-.72-1.71-.74-.65,0-1.2.22-1.63.65-.45.43-.71,1.04-.8,1.82h-2.37c.06-1.42.52-2.59,1.39-3.52.87-.9,1.94-1.37,3.22-1.38,1.42.02,2.58.48,3.47,1.41.9.91,1.36,2.08,1.38,3.48,0,1.13-.33,2.13-1,3l-5.33,6.9h6.33v2.44h-9.44v-2.3Z"/>
    <path class="cls-3" d="M49.57,15.28c.02-1.58.5-2.79,1.47-3.64.9-.84,1.98-1.26,3.23-1.26s2.38.42,3.28,1.27c.92.85,1.39,2.07,1.42,3.64v7.54c-.03,1.57-.5,2.78-1.42,3.63-.9.84-2,1.27-3.28,1.29-1.25-.02-2.33-.44-3.23-1.29-.96-.85-1.45-2.06-1.47-3.63v-7.55ZM56.6,15.43c-.05-1.71-.83-2.59-2.34-2.62-1.52.03-2.3.9-2.33,2.62v7.26c.03,1.73.81,2.6,2.33,2.62,1.51-.02,2.29-.89,2.34-2.62v-7.26Z"/>
    <path class="cls-3" d="M64.72,13.1l-2.35,1.78v-2.61l2.35-1.76h2.37v17.09h-2.37v-14.5Z"/>
    <path class="cls-3" d="M74.26,27.6s.06-.14.2-.43.32-.65.55-1.11.48-.96.76-1.51.56-1.1.83-1.64.53-1.04.77-1.49.43-.81.58-1.07c-.23.13-.48.21-.77.24s-.62.03-.99.02c-.52-.02-.97-.11-1.35-.28s-.72-.39-1-.64-.52-.54-.7-.86-.34-.62-.45-.93-.2-.58-.25-.84-.08-.47-.08-.62c0-.05,0-.13,0-.26s0-.26,0-.42,0-.31,0-.46.01-.29.03-.4c0-.05.03-.19.08-.42s.12-.49.24-.8.28-.65.49-1,.49-.69.83-1,.76-.58,1.25-.81,1.08-.37,1.76-.43c.71-.06,1.34-.02,1.88.13s1.01.36,1.4.64.71.61.97.98.46.76.6,1.14.24.76.29,1.12.05.67.02.93c-.05.38-.1.72-.15,1.03s-.12.59-.19.86-.16.54-.25.81-.2.55-.33.87c-.03.09-.12.27-.25.56s-.31.64-.52,1.06-.43.88-.68,1.39-.5,1.03-.76,1.54c-.6,1.22-1.27,2.58-2.02,4.08h-2.8ZM74.79,15.23c0,.3.02.64.05,1.01s.12.71.28,1.04.39.6.72.83.79.36,1.38.39c.3.02.57-.02.81-.11s.46-.21.64-.36.35-.32.49-.5.25-.37.34-.56.15-.35.19-.51.06-.28.06-.38c0-.2-.01-.41-.02-.66s-.03-.49-.07-.74-.12-.49-.22-.72-.25-.43-.43-.6-.43-.31-.72-.4-.66-.13-1.1-.11c-.48.02-.88.14-1.19.36s-.55.46-.73.73-.3.52-.38.77-.11.42-.11.52Z"/>
    <path class="cls-3" d="M132.15,7.93c-.05.19-.24.31-.48.34,2.38,3.12,6.74,6.62,10.44,8.47-.38.38-.79.91-1.08,1.39-3.77-2.09-8.09-5.62-10.37-8.66-1.99,2.9-6,6.48-10.15,8.83-.22-.36-.65-.94-1.01-1.27,4.2-2.28,8.4-6.1,10.3-9.26l2.35.17ZM138.99,19.73v6.82c0,1.85-1.01,1.9-4.75,1.9-.1-.48-.36-1.1-.6-1.54.74,0,1.44.02,2.02.02,1.51,0,1.68,0,1.68-.43v-5.28h-7.32v8.93h-1.66v-8.93h-6.6v-1.49h17.23ZM125.62,15.13h10.32v1.49h-10.32v-1.49Z"/>
    <path class="cls-3" d="M148.81,10.76c-1.49.34-3.05.65-4.51.89-.07-.36-.29-.89-.5-1.25,3.36-.6,7.2-1.51,9.24-2.54l1.49,1.25c-.1.07-.14.07-.48.07-.98.43-2.26.84-3.67,1.2v4.7h4.13v1.51h-4.13v1.44c1.01.91,3.48,3.43,4.08,4.1l-1.01,1.32c-.58-.82-1.99-2.45-3.07-3.67v10.34h-1.56v-11.14c-1.2,2.9-2.83,5.81-4.42,7.51-.19-.46-.6-1.08-.91-1.46,1.82-1.9,3.79-5.33,4.9-8.45h-4.58v-1.51h5.02v-4.32ZM155.48,10.49h9.34v18.79h-1.66v-1.68h-6.1v1.87h-1.58V10.49ZM157.06,26.05h6.1v-13.99h-6.1v13.99Z"/>
  </g>
  <g>
    <path class="cls-3" d="M41.96,147.18l-2.35,1.78v-2.61l2.35-1.76h2.37v17.09h-2.37v-14.5Z"/>
    <path class="cls-3" d="M51.5,161.68s.06-.14.2-.43.32-.65.55-1.11.48-.96.76-1.51.56-1.1.83-1.64.53-1.04.77-1.49.43-.81.58-1.07c-.23.13-.48.21-.77.24s-.62.03-.99.02c-.52-.02-.97-.11-1.35-.28s-.72-.39-1-.64-.52-.54-.7-.86-.34-.62-.45-.93-.2-.58-.25-.84-.08-.47-.08-.62c0-.05,0-.13,0-.26s0-.26,0-.42,0-.31,0-.46.01-.29.03-.4c0-.05.03-.19.08-.42s.12-.49.24-.8.28-.65.49-1,.49-.69.83-1,.76-.58,1.25-.81,1.08-.37,1.76-.43c.71-.06,1.34-.02,1.88.13s1.01.36,1.4.64.71.61.97.98.46.76.6,1.14.24.76.29,1.12.05.67.02.93c-.05.38-.1.72-.15,1.03s-.12.59-.19.86-.16.54-.25.81-.2.55-.33.87c-.03.09-.12.27-.25.56s-.31.64-.52,1.06-.43.88-.68,1.39-.5,1.03-.76,1.54c-.6,1.22-1.27,2.58-2.02,4.08h-2.8ZM52.02,149.3c0,.3.02.64.05,1.01s.12.71.28,1.04.39.6.72.83.79.36,1.38.39c.3.02.57-.02.81-.11s.46-.21.64-.36.35-.32.49-.5.25-.37.34-.56.15-.35.19-.51.06-.28.06-.38c0-.2-.01-.41-.02-.66s-.03-.49-.07-.74-.12-.49-.22-.72-.25-.43-.43-.6-.43-.31-.72-.4-.66-.13-1.1-.11c-.48.02-.88.14-1.19.36s-.55.46-.73.73-.3.52-.38.77-.11.42-.11.52Z"/>
    <path class="cls-3" d="M65,147.18l-2.35,1.78v-2.61l2.35-1.76h2.37v17.09h-2.37v-14.5Z"/>
    <path class="cls-3" d="M72.74,159.38l6.48-8.36c.25-.34.42-.65.51-.94.06-.27.09-.53.09-.77,0-.64-.19-1.2-.58-1.68-.4-.48-.97-.72-1.71-.74-.65,0-1.2.21-1.63.65-.45.43-.71,1.04-.8,1.82h-2.37c.06-1.42.52-2.59,1.39-3.52.87-.91,1.94-1.37,3.22-1.38,1.42.02,2.58.48,3.47,1.41.9.92,1.36,2.08,1.38,3.48,0,1.13-.33,2.13-1,3l-5.33,6.9h6.33v2.44h-9.44v-2.3Z"/>
    <path class="cls-3" d="M141.76,150.64h-9.38c1.56,5.74,4.66,10.15,9.77,12.05-.41.36-.94,1.03-1.2,1.51-5.02-2.06-8.06-6.31-9.84-12.1-1.1,4.75-3.72,9.46-9.91,12.12-.24-.43-.74-1.01-1.15-1.37,6.34-2.57,8.71-7.37,9.62-12.22h-9.26v-1.66h9.53c.31-2.5.29-4.94.31-7.03l2.26.12c-.02.22-.22.34-.53.41-.02,1.9-.05,4.15-.34,6.5h10.13v1.66Z"/>
    <path class="cls-3" d="M156.16,161.54h9.79v1.58h-21.79v-1.58h3.38v-11.62l2.16.14c-.02.17-.17.29-.48.34v11.14h5.23v-16.23h-9.36v-1.56h20.02v1.56h-8.95v6.75h7.83v1.58h-7.83v7.9Z"/>
  </g>
  <g>
    <path class="cls-3" d="M42.43,194.89l-2.35,1.78v-2.61l2.35-1.76h2.37v17.09h-2.37v-14.5Z"/>
    <path class="cls-3" d="M49.95,204.4c.02-1.65.69-2.93,2.02-3.85-.51-.45-.91-.96-1.2-1.54-.34-.54-.5-1.18-.5-1.92.02-1.42.48-2.6,1.4-3.53.86-.92,1.98-1.39,3.34-1.41,1.39.02,2.52.48,3.4,1.41.89.93,1.34,2.11,1.35,3.53,0,.74-.15,1.38-.46,1.92-.32.58-.73,1.09-1.24,1.54,1.33.91,2,2.2,2.02,3.84-.01,1.54-.5,2.77-1.47,3.69-.98.95-2.18,1.43-3.6,1.44-1.41-.02-2.59-.5-3.54-1.44-.99-.92-1.5-2.15-1.51-3.69ZM52.32,204.38c.02.78.29,1.42.82,1.93.51.52,1.13.79,1.87.79s1.39-.26,1.9-.79c.52-.5.79-1.14.8-1.93-.02-.8-.28-1.45-.8-1.95-.51-.49-1.14-.75-1.9-.76-.73.02-1.35.27-1.87.76-.53.5-.81,1.15-.82,1.95ZM52.64,197.05c.02.79.26,1.4.74,1.81.47.43,1.02.65,1.63.65s1.19-.22,1.67-.65c.46-.42.7-1.02.72-1.81-.02-.82-.25-1.43-.72-1.85-.47-.4-1.03-.6-1.67-.6s-1.16.2-1.63.6c-.48.42-.73,1.03-.74,1.85Z"/>
    <path class="cls-3" d="M69.86,192.13s-.03.08-.11.25-.19.4-.33.69-.3.62-.49,1l-.59,1.18c-.21.41-.42.83-.63,1.25s-.42.82-.62,1.21-.38.73-.54,1.04-.3.56-.41.75c.23-.13.48-.21.77-.24s.62-.03.99-.02c.54.02,1.01.11,1.41.28s.75.39,1.04.64.53.54.72.86.34.62.45.93.19.58.23.84.06.47.06.62v.67c0,.15,0,.31,0,.46s0,.29-.02.4c0,.05-.03.2-.08.43s-.12.5-.23.82-.28.66-.49,1.02-.49.71-.83,1.03-.76.6-1.25.84-1.08.38-1.76.43c-.71.06-1.34.02-1.89-.14s-1.02-.38-1.42-.67-.73-.62-1-1-.47-.77-.63-1.17-.25-.78-.3-1.15-.06-.68-.03-.94c.05-.38.1-.72.15-1.03s.12-.59.19-.86.16-.54.25-.81.2-.55.33-.87c.03-.08.12-.26.26-.56s.31-.65.52-1.08.44-.9.7-1.42.52-1.04.77-1.57c.61-1.23,1.29-2.61,2.05-4.14h2.77ZM69.37,204.63c0-.3-.01-.62-.04-.98s-.11-.7-.26-1.03-.4-.6-.74-.84-.83-.38-1.46-.42c-.3-.02-.57,0-.81.09s-.46.2-.64.35-.35.32-.49.51-.25.38-.34.57-.15.36-.19.52-.06.28-.06.37c0,.2,0,.41.01.65s.03.48.08.71.12.47.22.69.25.42.43.59.43.31.72.42.66.16,1.1.16c.35,0,.66-.04.92-.13s.48-.22.67-.38.33-.32.45-.51.21-.37.28-.55.11-.34.13-.49.04-.25.04-.32Z"/>
    <path class="cls-3" d="M72.99,204.4c.02-1.65.69-2.93,2.02-3.85-.51-.45-.91-.96-1.2-1.54-.34-.54-.5-1.18-.5-1.92.01-1.42.48-2.6,1.4-3.53.86-.92,1.98-1.39,3.34-1.41,1.39.02,2.52.48,3.4,1.41.89.93,1.34,2.11,1.35,3.53,0,.74-.15,1.38-.46,1.92-.32.58-.73,1.09-1.24,1.54,1.33.91,2,2.2,2.02,3.84-.01,1.54-.5,2.77-1.47,3.69-.98.95-2.18,1.43-3.6,1.44-1.41-.02-2.59-.5-3.54-1.44-1-.92-1.5-2.15-1.51-3.69ZM75.36,204.38c.01.78.29,1.42.82,1.93.51.52,1.13.79,1.87.79s1.39-.26,1.9-.79c.52-.5.79-1.14.8-1.93-.02-.8-.28-1.45-.8-1.95-.51-.49-1.14-.75-1.9-.76-.73.02-1.35.27-1.87.76-.53.5-.81,1.15-.82,1.95ZM75.68,197.05c.01.79.26,1.4.74,1.81.47.43,1.02.65,1.63.65s1.19-.22,1.67-.65c.46-.42.7-1.02.72-1.81-.02-.82-.25-1.43-.72-1.85-.47-.4-1.03-.6-1.67-.6s-1.16.2-1.63.6c-.48.42-.73,1.03-.74,1.85Z"/>
    <path class="cls-3" d="M129.23,205.6h-6.36v2.3h-1.51v-16.75h7.87v14.45ZM127.71,192.64h-4.85v4.87h4.85v-4.87ZM122.87,204.11h4.85v-5.11h-4.85v5.11ZM141.85,190.69v19.01c0,1.08-.26,1.61-1.01,1.87-.74.26-2.06.31-4.18.31-.07-.46-.36-1.15-.6-1.61.82.02,1.61.05,2.26.05,1.75,0,1.94,0,1.94-.62v-5.59h-7.49c-.55,2.9-1.8,5.83-4.56,7.97-.24-.31-.84-.89-1.2-1.1,4.15-3.19,4.56-7.83,4.56-11.64v-8.64h10.27ZM133.16,199.33c0,1.03-.05,2.14-.17,3.29h7.27v-4.51h-7.1v1.22ZM140.27,192.21h-7.1v4.42h7.1v-4.42Z"/>
    <path class="cls-3" d="M145.21,196.41c1.63.53,3.72,1.49,4.78,2.28l-.91,1.39c-1.01-.79-3.07-1.82-4.75-2.42l.89-1.25ZM145.11,210.5c1.32-1.87,3.22-5.11,4.61-7.87.96.84,1.08.96,1.2,1.06-1.27,2.57-2.98,5.59-4.2,7.46.07.12.12.22.12.31s-.05.19-.12.29l-1.61-1.25ZM146.53,189.81c1.66.62,3.65,1.7,4.68,2.57l-.96,1.37c-.98-.89-2.95-2.04-4.61-2.71l.89-1.22ZM158.63,190.21c-.1.17-.29.26-.58.26-.84,2.28-2.14,5.4-3.36,7.71,2.59-.07,5.59-.17,8.57-.29-.94-1.32-2.02-2.66-3.02-3.79l1.39-.72c2.02,2.14,4.2,5.04,5.18,6.96l-1.46.84c-.29-.55-.67-1.2-1.1-1.9-4.7.26-9.7.48-12.77.6-.05.19-.19.29-.36.31l-.6-1.9,2.45-.07c1.27-2.4,2.71-6,3.5-8.62l2.16.6ZM152.75,211.98v-9.77h11.81v9.67h-1.61v-1.01h-8.62v1.1h-1.58ZM162.95,203.73h-8.62v5.64h8.62v-5.64Z"/>
  </g>
  <line class="cls-1" x1=".5" y1="42.55" x2="225.07" y2="42.55"/>
  <line class="cls-1" x1="1.92" y1="131.16" x2="226.49" y2="131.16"/>
  <line class="cls-1" x1=".5" y1="176.52" x2="225.07" y2="176.52"/>
</svg>